Coordinates
version=1
nRows=24
nColumns=22
inDegrees=yes

Units are S.I. units (second, meters, Newtons, ...)
If the header above contains a line with 'inDegrees', this indicates whether rotational values are in degrees (yes) or radians (no).

endheader
time	pelvis_tilt	pelvis_list	pelvis_rotation	pelvis_tx	pelvis_ty	pelvis_tz	hip_flexion_r	hip_adduction_r	hip_rotation_r	knee_angle_r	ankle_angle_r	subtalar_angle_r	hip_flexion_l	hip_adduction_l	hip_rotation_l	knee_angle_l	ankle_angle_l	subtalar_angle_l	lumbar_extension	lumbar_bending	lumbar_rotation
      1.74000000	      2.15010976	     -1.11602298	     21.16338298	      0.53920131	      0.91258560	      0.88033900	      8.69924359	     -3.42861610	      3.47611381	    -65.86485431	    -22.67854016	     11.53628090	     12.22763862	      1.97268746	    -34.06286815	    -23.19504322	     10.55031396	    -15.35747791	     -6.31463919	     -4.18552525	      4.44562006
      1.75000000	      2.23711436	     -0.96271554	     22.26345066	      0.54392704	      0.91324923	      0.87311395	     10.13694842	     -3.49571399	      3.61305109	    -67.20706862	    -21.52694979	     11.17333525	     11.41105033	      2.65858387	    -33.16451078	    -22.70404242	     10.68214510	    -15.07438034	     -6.39776748	     -4.23619756	      3.87955574
      1.76000000	      2.31946122	     -0.89131698	     23.42432687	      0.54842418	      0.91387788	      0.86587661	     11.56041333	     -3.48878477	      3.70262039	    -68.28830030	    -20.22214796	     10.83480949	     10.63057477	      3.25167995	    -32.17256538	    -22.21692311	     10.82494166	    -14.78744698	     -6.45807664	     -4.19406106	      3.32056021
      1.77000000	      2.40110335	     -0.89535594	     24.63968618	      0.55268566	      0.91447069	      0.85864509	     12.96495046	     -3.41769796	      3.75037584	    -69.10776731	    -18.82252233	     10.56863838	      9.88379050	      3.75344336	    -31.10368048	    -21.73550458	     10.96262759	    -14.51362748	     -6.50054472	     -4.06786802	      2.76776608
      1.78000000	      2.47764714	     -0.96206001	     25.89592158	      0.55673027	      0.91500967	      0.85143475	     14.35105259	     -3.30184582	      3.76522958	    -69.66960382	    -17.36734463	     10.34882946	      9.17208979	      4.17354372	    -29.98243433	    -21.26132179	     11.09067285	    -14.24521885	     -6.52022782	     -3.87813028	      2.23378523
      1.79000000	      2.55184856	     -1.07145128	     27.18277911	      0.56058679	      0.91548935	      0.84425427	     15.70468788	     -3.16288331	      3.75891900	    -69.97814137	    -15.85943690	     10.17861143	      8.48671936	      4.52499850	    -28.84015629	    -20.79956076	     11.21218976	    -13.98663345	     -6.52251651	     -3.64940205	      1.71783408
      1.80000000	      2.61611007	     -1.20203661	     28.49708449	      0.56425478	      0.91590564	      0.83713617	     17.02719983	     -3.01582441	      3.75442976	    -70.04558336	    -14.33859516	      9.97899801	      7.83389695	      4.83354148	    -27.63116625	    -20.35747981	     11.30291345	    -13.70470049	     -6.51498307	     -3.41782197	      1.23003108
      1.81000000	      2.68774037	     -1.32960535	     29.82950962	      0.56783631	      0.91629012	      0.83000888	     18.27148804	     -2.88275296	      3.75552641	    -69.86606274	    -12.78328830	      9.80682819	      7.16283174	      5.11194049	    -26.43558482	    -19.90927493	     11.38390836	    -13.44407931	     -6.50691861	     -3.19441859	      0.74983163
      1.82000000	      2.77542379	     -1.43168490	     31.17518475	      0.57134994	      0.91666402	      0.82290881	     19.42122488	     -2.76038893	      3.78815911	    -69.45782040	    -11.23489306	      9.46575277	      6.46422160	      5.37368305	    -25.19814578	    -19.47431278	     11.43589200	    -13.13399121	     -6.52485886	     -3.00606853	      0.28570004
      1.83000000	      2.88146079	     -1.49974046	     32.54419554	      0.57484406	      0.91705132	      0.81573757	     20.45418892	     -2.67445766	      3.82378930	    -68.81382705	     -9.74590484	      9.19550074	      5.70230978	      5.63360818	    -23.95149424	    -19.00345745	     11.46892389	    -12.90094239	     -6.56460281	     -2.84807758	     -0.19468532
      1.84000000	      3.00888454	     -1.53439515	     33.92773876	      0.57836501	      0.91745824	      0.80852332	     21.36345640	     -2.61185870	      3.86012366	    -67.94191711	     -8.34375878	      8.80136758	      4.87687311	      5.87908331	    -22.69923820	    -18.50945637	     11.48832034	    -12.66375968	     -6.62419041	     -2.72376695	     -0.67378094
      1.85000000	      3.17310598	     -1.52971178	     35.28695621	      0.58191242	      0.91788242	      0.80138790	     22.14622574	     -2.53355984	      3.94055860	    -66.87066439	     -6.99750183	      8.16270855	      3.99259198	      6.08991925	    -21.47580561	    -18.03159692	     11.51523568	    -12.40432248	     -6.73962794	     -2.63550075	     -1.11580961
      1.86000000	      3.30404521	     -1.52320048	     36.65952147	      0.58539806	      0.91822062	      0.79424476	     22.88923086	     -2.49265250	      3.98956380	    -65.60221943	     -5.87211159	      7.65381260	      3.12117561	      6.29499967	    -20.21635912	    -17.52784477	     11.52789092	    -12.20102799	     -6.82345493	     -2.57149070	     -1.58571526
      1.87000000	      3.44451473	     -1.49574144	     38.00724884	      0.58889939	      0.91850408	      0.78721214	     23.54056557	     -2.43680628	      4.05391236	    -64.15688053	     -4.80659989	      6.98407599	      2.23160665	      6.46347318	    -18.99574911	    -17.04466928	     11.57860831	    -11.97240726	     -6.93294106	     -2.54250977	     -2.02809630
      1.88000000	      3.54825399	     -1.48506990	     39.35779980	      0.59233917	      0.91866318	      0.78020111	     24.16577489	     -2.40331084	      4.06436040	    -62.53171880	     -3.96625313	      6.47053033	      1.37512371	      6.61150349	    -17.76406570	    -16.54491011	     11.62857353	    -11.77636765	     -7.00278319	     -2.52756004	     -2.48271681
      1.89000000	      3.66197547	     -1.46123058	     40.67542839	      0.59579027	      0.91874452	      0.77329960	     24.69955005	     -2.34032898	      4.08472846	    -60.73857890	     -3.18875722	      5.89084374	      0.51265845	      6.71939756	    -16.57406722	    -16.07653874	     11.73776128	    -11.55826473	     -7.10086360	     -2.53233573	     -2.91800742
      1.90000000	      3.76142567	     -1.45701589	     42.00344682	      0.59920342	      0.91871797	      0.76640890	     25.17988900	     -2.27093417	      4.04323896	    -58.77113074	     -2.64217009	      5.52155443	     -0.32656854	      6.78988108	    -15.35131487	    -15.60949920	     11.83007084	    -11.38176751	     -7.17603588	     -2.53465144	     -3.36791379
      1.91000000	      3.86001599	     -1.45259966	     43.32277231	      0.60262193	      0.91858968	      0.75953710	     25.57832380	     -2.19108296	      3.95183729	    -56.63655041	     -2.20937899	      5.25887653	     -1.16136069	      6.82479858	    -14.14323404	    -15.15899033	     11.95205798	    -11.22778631	     -7.25410997	     -2.54438966	     -3.82310638
      1.92000000	      3.90141822	     -1.47459167	     44.64745805	      0.60601355	      0.91825882	      0.75268538	     25.96984932	     -2.12954616	      3.79555022	    -54.35156095	     -1.92064033	      5.19839958	     -1.91058159	      6.84498201	    -12.92271323	    -14.75676010	     12.09925966	    -11.13682660	     -7.27004695	     -2.58429922	     -4.31458147
      1.93000000	      3.99617706	     -1.46685142	     45.95174363	      0.60946325	      0.91793831	      0.74579564	     26.19694661	     -2.03292618	      3.58667099	    -51.87637723	     -1.77351630	      5.15595943	     -2.73539085	      6.81642240	    -11.72147269	    -14.34433520	     12.21984533	    -11.05458943	     -7.35080942	     -2.61095969	     -4.77770251
      1.94000000	      4.14981948	     -1.40806686	     47.20406882	      0.61302564	      0.91765282	      0.73887844	     26.23785344	     -1.89031863	      3.35692486	    -49.20552743	     -1.70204099	      5.16499562	     -3.65925530	      6.74622161	    -10.58527608	    -13.91587025	     12.32327195	    -10.96595044	     -7.51475743	     -2.63767846	     -5.16826798
      1.95000000	      4.18131174	     -1.40119351	     48.47149036	      0.61654960	      0.91706034	      0.73194409	     26.34975044	     -1.80543881	      3.05459104	    -46.41324717	     -1.80282756	      5.30330427	     -4.41068979	      6.69464016	     -9.43420687	    -13.57023714	     12.46920500	    -10.90135883	     -7.54142681	     -2.72805094	     -5.61651408
      1.96000000	      4.28252478	     -1.32958643	     49.66612681	      0.62022055	      0.91653398	      0.72495384	     26.24818793	     -1.66570069	      2.75331535	    -43.42021357	     -1.92690648	      5.57698865	     -5.28611231	      6.60667266	     -8.37845583	    -13.19906070	     12.60305488	    -10.78865301	     -7.66760482	     -2.81809026	     -5.96144322
      1.97000000	      4.30281300	     -1.28595413	     50.83974121	      0.62391318	      0.91579176	      0.71793273	     26.15491956	     -1.55907500	      2.40041183	    -40.29360209	     -2.17278858	      5.94947807	     -6.05632597	      6.53300004	     -7.36759629	    -12.88330872	     12.76501161	    -10.65671360	     -7.70691059	     -2.96205111	     -6.31785014
